<svg width="80" height="80" viewBox="0 0 80 80" fill="none" xmlns="http://www.w3.org/2000/svg">
<circle cx="40" cy="40" r="40" fill="#E0E5FF"/>
<path d="M39.9903 24.0731C39.0015 24.0731 38.1677 23.2558 38.1677 22.2865C38.1677 21.2982 39.0015 20.5 39.9903 20.5C40.9985 20.5 41.8129 21.2982 41.8129 22.2865C41.8129 23.2558 40.9985 24.0731 39.9903 24.0731ZM45.5744 24.9664C44.5856 24.9664 43.7518 24.1491 43.7518 23.1798C43.7518 22.1915 44.5856 21.3933 45.5744 21.3933C46.5826 21.3933 47.397 22.1915 47.397 23.1798C47.397 24.1491 46.5826 24.9664 45.5744 24.9664ZM34.4062 24.9664C33.4174 24.9664 32.5836 24.1491 32.5836 23.1798C32.5836 22.1915 33.4174 21.3933 34.4062 21.3933C35.4144 21.3933 36.2288 22.1915 36.2288 23.1798C36.2288 24.1491 35.4144 24.9664 34.4062 24.9664ZM50.6544 27.4751C49.6461 27.4751 48.8318 26.6579 48.8318 25.6886C48.8318 24.7003 49.6461 23.902 50.6544 23.902C51.6432 23.902 52.477 24.7003 52.477 25.6886C52.477 26.6579 51.6432 27.4751 50.6544 27.4751ZM29.3456 27.4751C28.3374 27.4751 27.523 26.6579 27.523 25.6886C27.523 24.7003 28.3374 23.902 29.3456 23.902C30.3539 23.902 31.1682 24.7003 31.1682 25.6886C31.1682 26.6579 30.3539 27.4751 29.3456 27.4751ZM54.6486 31.3904C53.6597 31.3904 52.826 30.5921 52.826 29.6038C52.826 28.6345 53.6597 27.8173 54.6486 27.8173C55.6568 27.8173 56.4712 28.6345 56.4712 29.6038C56.4712 30.5921 55.6568 31.3904 54.6486 31.3904ZM25.332 31.3904C24.3432 31.3904 23.5095 30.5921 23.5095 29.6038C23.5095 28.6345 24.3432 27.8173 25.332 27.8173C26.3403 27.8173 27.1546 28.6345 27.1546 29.6038C27.1546 30.5921 26.3403 31.3904 25.332 31.3904ZM37.9157 49.0278C37.1983 49.0278 36.636 48.7427 36.1125 48.0775L31.5366 42.6038C31.207 42.2047 31.0325 41.7866 31.0325 41.3304C31.0325 40.3801 31.7887 39.6389 32.7387 39.6389C33.301 39.6389 33.7664 39.848 34.2317 40.4371L37.8381 44.9415L45.4968 32.8918C45.904 32.2456 46.4275 31.9415 47.0092 31.9415C47.9205 31.9415 48.7736 32.5687 48.7736 33.5C48.7736 33.9371 48.541 34.3933 48.2889 34.7924L39.6219 48.0775C39.2147 48.6857 38.6137 49.0278 37.9157 49.0278ZM57.2079 36.2939C56.1997 36.2939 55.3854 35.4956 55.3854 34.5073C55.3854 33.538 56.1997 32.7208 57.2079 32.7208C58.2162 32.7208 59.0305 33.538 59.0305 34.5073C59.0305 35.4956 58.2162 36.2939 57.2079 36.2939ZM22.7921 36.2939C21.7838 36.2939 20.9695 35.4956 20.9695 34.5073C20.9695 33.538 21.7838 32.7208 22.7921 32.7208C23.7809 32.7208 24.6146 33.538 24.6146 34.5073C24.6146 35.4956 23.7809 36.2939 22.7921 36.2939ZM58.158 41.7865C57.1692 41.7865 56.3354 40.9883 56.3354 40C56.3354 39.0117 57.1692 38.2134 58.158 38.2134C59.1663 38.2134 60 39.0117 60 40C60 40.9883 59.1663 41.7865 58.158 41.7865ZM21.8226 41.7865C20.8143 41.7865 20 40.9883 20 40C20 39.0117 20.8143 38.2134 21.8226 38.2134C22.8308 38.2134 23.6452 39.0117 23.6452 40C23.6452 40.9883 22.8308 41.7865 21.8226 41.7865ZM57.2079 47.2792C56.1997 47.2792 55.3854 46.462 55.3854 45.4927C55.3854 44.5044 56.1997 43.7061 57.2079 43.7061C58.2162 43.7061 59.0305 44.5044 59.0305 45.4927C59.0305 46.462 58.2162 47.2792 57.2079 47.2792ZM22.7921 47.2792C21.7838 47.2792 20.9695 46.462 20.9695 45.4927C20.9695 44.5044 21.7838 43.7061 22.7921 43.7061C23.7809 43.7061 24.6146 44.5044 24.6146 45.4927C24.6146 46.462 23.7809 47.2792 22.7921 47.2792ZM54.6486 52.1827C53.6597 52.1827 52.826 51.3655 52.826 50.3962C52.826 49.4079 53.6597 48.6096 54.6486 48.6096C55.6568 48.6096 56.4712 49.4079 56.4712 50.3962C56.4712 51.3655 55.6568 52.1827 54.6486 52.1827ZM25.332 52.1827C24.3432 52.1827 23.5095 51.3655 23.5095 50.3962C23.5095 49.4079 24.3432 48.6096 25.332 48.6096C26.3403 48.6096 27.1546 49.4079 27.1546 50.3962C27.1546 51.3655 26.3403 52.1827 25.332 52.1827ZM50.6544 56.117C49.6461 56.117 48.8318 55.2997 48.8318 54.3304C48.8318 53.3421 49.6461 52.5249 50.6544 52.5249C51.6432 52.5249 52.477 53.3421 52.477 54.3304C52.477 55.2997 51.6432 56.117 50.6544 56.117ZM29.3456 56.117C28.3374 56.117 27.523 55.2997 27.523 54.3304C27.523 53.3421 28.3374 52.5249 29.3456 52.5249C30.3539 52.5249 31.1682 53.3421 31.1682 54.3304C31.1682 55.2997 30.3539 56.117 29.3456 56.117ZM45.5744 58.6067C44.5856 58.6067 43.7518 57.8085 43.7518 56.8202C43.7518 55.8509 44.5856 55.0336 45.5744 55.0336C46.5826 55.0336 47.397 55.8509 47.397 56.8202C47.397 57.8085 46.5826 58.6067 45.5744 58.6067ZM34.4062 58.6067C33.4174 58.6067 32.5836 57.8085 32.5836 56.8202C32.5836 55.8509 33.4174 55.0336 34.4062 55.0336C35.4144 55.0336 36.2288 55.8509 36.2288 56.8202C36.2288 57.8085 35.4144 58.6067 34.4062 58.6067ZM39.9903 59.5C39.0015 59.5 38.1677 58.7018 38.1677 57.7135C38.1677 56.7442 39.0015 55.9269 39.9903 55.9269C40.9985 55.9269 41.8129 56.7442 41.8129 57.7135C41.8129 58.7018 40.9985 59.5 39.9903 59.5Z" fill="#3B45FD"/>
</svg>
